<?xml version="1.0" encoding="utf-8"?>
<!-- Generator: Adobe Illustrator 24.1.1, SVG Export Plug-In . SVG Version: 6.00 Build 0)  -->
<svg version="1.1" id="Layer_1" xmlns="http://www.w3.org/2000/svg" xmlns:xlink="http://www.w3.org/1999/xlink" x="0px" y="0px"
	 viewBox="0 0 512 512" style="enable-background:new 0 0 512 512;" xml:space="preserve">
<g>
	<path d="M361.4,181.7c2.4,1.2,4.7,2.9,6.5,4.9l50.1-22.3l-46.8-46.4l-10.5,63.1L361.4,181.7z M257.3,139.6c2.5,3.7,4,7.8,4.5,12.2
		l74.6,31.6c2.2-1.8,4.8-3,7.6-3.8l12.2-75.8l-45.4-47.7l-53.5,82.2L257.3,139.6z M512,256.8l-80-79.9l-54.4,22.3l133.7,56.9
		L512,256.8z M498.7,269.8l-128.4-54.9c-3.6,4.8-9,7.9-14.9,8.7L341.6,308c4.1,4.2,6.4,9.7,6.4,15.6l77.5,16.3l71.1-70.6v-1.3
		L498.7,269.8z M328.6,197.3l-69.7-29.7c-4.9,7.5-13.3,11.9-22.3,11.6h-4.2l-57.8,89.1l154.2-66.8v0.2v-3.6L328.6,197.3L328.6,197.3
		z M413.3,353.3l-68.2-14.1c-2.6,3.3-5.9,5.8-9.8,7.3L319,447.3l94.7-93.9l-0.4,0.5L413.3,353.3z M317.9,346.4
		c-6.6-2.7-11.4-8.3-13.2-15.2l-127-26.1l-1.8,2.9l115.2,166.6l6.9-6.8l19.6-121.1l0.2,0.3V346.4z M180.5,289.8l125.5,25.9
		c3.7-6.4,10.2-10.6,17.6-11.2l13.6-83l-2.9-2.5l-156,66.9L180.5,289.8z M127.9,310.7l-2.7-2.6l-54.1,22.2l26.2,26.1l29.9-46.4
		L127.9,310.7z M163.5,319.2c-3.8,1.7-7.9,2.6-12,2.7c-3.3,0-6.5-0.5-9.7-1.6l-32.9,47.9l144.4,143l25.4-25.3L163.5,319.2z
		 M143.3,262.8c2.2-0.2,4.4-0.2,6.7,0c2.4-0.3,4.9-0.3,7.3,0l58.3-90.7c-4.6-4.7-7.1-11.1-7.1-17.6c-0.2-1.9-0.2-3.9,0-5.8
		l-70.9-32.8l-57,55.5L143.3,262.8z M149.7,104.9l69.1,29.4c5-4.2,11.3-6.3,17.8-6.1c2.8,0.1,5.7,0.5,8.4,1.3l54-84.2L254.4,0.7
		L149.7,103.5V104.9z M123.9,279.1c1.4-2.6,3.1-5,5.2-7.2l-59.1-88.2L0,251.7L123.9,279.1z M118.3,294l-107-22.3l47,47.7l59.3-25.2
		L118.3,294z"/>
</g>
</svg>
